<svg width="174" height="30" viewBox="0 0 174 30" fill="none" xmlns="http://www.w3.org/2000/svg">
<path d="M101.55 12.6484V15.0776H92.1138V12.6484H101.55ZM92.8706 5.22656V23H89.8066V5.22656H92.8706ZM103.906 5.22656V23H100.854V5.22656H103.906ZM113.085 23.2441C112.109 23.2441 111.226 23.0854 110.437 22.7681C109.655 22.4425 108.988 21.9909 108.435 21.4131C107.889 20.8353 107.47 20.1558 107.177 19.3745C106.884 18.5933 106.738 17.751 106.738 16.8477V16.3594C106.738 15.3258 106.888 14.39 107.189 13.5518C107.491 12.7135 107.91 11.9974 108.447 11.4033C108.984 10.8011 109.619 10.3413 110.351 10.0239C111.083 9.70654 111.877 9.54785 112.731 9.54785C113.675 9.54785 114.501 9.70654 115.209 10.0239C115.917 10.3413 116.503 10.7889 116.967 11.3667C117.439 11.9364 117.789 12.6159 118.017 13.4053C118.253 14.1947 118.371 15.0654 118.371 16.0176V17.2749H108.166V15.1631H115.466V14.9312C115.45 14.4022 115.344 13.9058 115.148 13.4419C114.961 12.978 114.672 12.6037 114.282 12.3188C113.891 12.034 113.37 11.8916 112.719 11.8916C112.231 11.8916 111.796 11.9974 111.413 12.209C111.039 12.4124 110.725 12.7095 110.473 13.1001C110.221 13.4907 110.026 13.9627 109.887 14.5161C109.757 15.0614 109.692 15.6758 109.692 16.3594V16.8477C109.692 17.4255 109.769 17.9626 109.924 18.459C110.087 18.9473 110.323 19.3745 110.632 19.7407C110.941 20.1069 111.315 20.3958 111.755 20.6074C112.194 20.8109 112.695 20.9126 113.256 20.9126C113.964 20.9126 114.595 20.7702 115.148 20.4854C115.702 20.2005 116.182 19.7977 116.589 19.2769L118.139 20.7783C117.854 21.1934 117.484 21.5921 117.028 21.9746C116.573 22.349 116.015 22.6541 115.356 22.8901C114.705 23.1261 113.948 23.2441 113.085 23.2441ZM128.112 20.3511V14.0522C128.112 13.5802 128.027 13.1733 127.856 12.8315C127.685 12.4897 127.425 12.2253 127.075 12.0381C126.733 11.8509 126.302 11.7573 125.781 11.7573C125.301 11.7573 124.886 11.8387 124.536 12.0015C124.186 12.1642 123.913 12.384 123.718 12.6606C123.522 12.9373 123.425 13.2507 123.425 13.6006H120.495C120.495 13.0798 120.621 12.5752 120.874 12.0869C121.126 11.5986 121.492 11.1632 121.972 10.7808C122.452 10.3983 123.026 10.0972 123.693 9.87744C124.361 9.65771 125.109 9.54785 125.939 9.54785C126.932 9.54785 127.811 9.71468 128.576 10.0483C129.349 10.382 129.956 10.8866 130.395 11.562C130.843 12.2293 131.066 13.0675 131.066 14.0767V19.9482C131.066 20.5505 131.107 21.0916 131.188 21.5718C131.278 22.0438 131.404 22.4548 131.567 22.8047V23H128.552C128.413 22.6826 128.304 22.2798 128.222 21.7915C128.149 21.2951 128.112 20.8149 128.112 20.3511ZM128.54 14.9678L128.564 16.7866H126.452C125.907 16.7866 125.427 16.8395 125.012 16.9453C124.597 17.043 124.251 17.1895 123.974 17.3848C123.697 17.5801 123.49 17.8161 123.352 18.0928C123.213 18.3695 123.144 18.6828 123.144 19.0327C123.144 19.3826 123.225 19.7041 123.388 19.9971C123.551 20.2819 123.787 20.5057 124.096 20.6685C124.414 20.8312 124.796 20.9126 125.244 20.9126C125.846 20.9126 126.371 20.7905 126.818 20.5464C127.274 20.2941 127.632 19.9889 127.893 19.6309C128.153 19.2646 128.291 18.9188 128.308 18.5933L129.26 19.8994C129.162 20.2331 128.995 20.5911 128.759 20.9736C128.523 21.3561 128.214 21.7223 127.832 22.0723C127.457 22.4141 127.006 22.6948 126.477 22.9146C125.956 23.1343 125.354 23.2441 124.67 23.2441C123.807 23.2441 123.038 23.0732 122.363 22.7314C121.687 22.3815 121.158 21.9136 120.776 21.3276C120.393 20.7336 120.202 20.0622 120.202 19.3135C120.202 18.6136 120.332 17.9951 120.593 17.458C120.861 16.9128 121.252 16.457 121.765 16.0908C122.285 15.7246 122.92 15.4479 123.669 15.2607C124.418 15.0654 125.272 14.9678 126.232 14.9678H128.54ZM137.292 4.25V23H134.338V4.25H137.292ZM146.569 9.79199V11.9404H139.123V9.79199H146.569ZM141.271 6.55713H144.213V19.3501C144.213 19.757 144.27 20.0703 144.384 20.29C144.506 20.5016 144.673 20.644 144.885 20.7173C145.096 20.7905 145.345 20.8271 145.629 20.8271C145.833 20.8271 146.028 20.8149 146.215 20.7905C146.403 20.7661 146.553 20.7417 146.667 20.7173L146.679 22.9634C146.435 23.0366 146.15 23.1017 145.825 23.1587C145.507 23.2157 145.141 23.2441 144.726 23.2441C144.051 23.2441 143.452 23.1261 142.932 22.8901C142.411 22.646 142.004 22.2513 141.711 21.7061C141.418 21.1608 141.271 20.4365 141.271 19.5332V6.55713ZM151.745 4.25V23H148.815V4.25H151.745ZM151.232 15.9077L150.28 15.8955C150.288 14.984 150.415 14.1418 150.659 13.3687C150.911 12.5955 151.261 11.9242 151.708 11.3545C152.164 10.7767 152.709 10.3332 153.344 10.0239C153.979 9.70654 154.683 9.54785 155.456 9.54785C156.107 9.54785 156.693 9.63737 157.214 9.81641C157.743 9.99544 158.199 10.2843 158.581 10.6831C158.964 11.0737 159.252 11.5864 159.448 12.2212C159.651 12.8478 159.753 13.6128 159.753 14.5161V23H156.799V14.4917C156.799 13.8569 156.705 13.3524 156.518 12.978C156.339 12.6037 156.075 12.3351 155.725 12.1724C155.375 12.0015 154.947 11.916 154.443 11.916C153.914 11.916 153.446 12.0218 153.039 12.2334C152.64 12.445 152.307 12.7339 152.038 13.1001C151.77 13.4663 151.566 13.8895 151.428 14.3696C151.298 14.8498 151.232 15.3625 151.232 15.9077ZM166.564 21.5596L170.153 9.79199H173.303L168.005 25.0142C167.883 25.3397 167.724 25.6937 167.529 26.0762C167.333 26.4587 167.077 26.8208 166.76 27.1626C166.451 27.5125 166.064 27.7933 165.6 28.0049C165.136 28.2246 164.575 28.3345 163.916 28.3345C163.655 28.3345 163.403 28.3101 163.159 28.2612C162.923 28.2205 162.699 28.1758 162.487 28.127L162.475 25.8809C162.556 25.889 162.654 25.8971 162.768 25.9053C162.89 25.9134 162.988 25.9175 163.061 25.9175C163.549 25.9175 163.956 25.8564 164.282 25.7344C164.607 25.6204 164.872 25.4333 165.075 25.1729C165.287 24.9124 165.466 24.5625 165.612 24.123L166.564 21.5596ZM164.538 9.79199L167.675 19.6797L168.2 22.7803L166.162 23.3052L161.364 9.79199H164.538Z" fill="white" fill-opacity="0.3"/>
<path d="M108.12 8.8V23H106.32V16.54H98.5V23H96.7V8.8H98.5V14.94H106.32V8.8H108.12ZM115.688 23.2C114.902 23.2 114.182 23.06 113.528 22.78C112.888 22.4867 112.328 22.0933 111.848 21.6C111.382 21.0933 111.015 20.5133 110.748 19.86C110.495 19.2067 110.368 18.5133 110.368 17.78C110.368 16.7933 110.595 15.8933 111.048 15.08C111.502 14.2667 112.128 13.6133 112.928 13.12C113.742 12.6267 114.668 12.38 115.708 12.38C116.762 12.38 117.675 12.6333 118.448 13.14C119.235 13.6333 119.842 14.2867 120.268 15.1C120.708 15.9 120.928 16.7667 120.928 17.7C120.928 17.8333 120.922 17.9667 120.908 18.1C120.908 18.22 120.902 18.3133 120.888 18.38H112.228C112.282 19.06 112.468 19.6667 112.788 20.2C113.122 20.72 113.548 21.1333 114.068 21.44C114.588 21.7333 115.148 21.88 115.748 21.88C116.388 21.88 116.988 21.72 117.548 21.4C118.122 21.08 118.515 20.66 118.728 20.14L120.248 20.56C120.022 21.0667 119.682 21.52 119.228 21.92C118.788 22.32 118.262 22.6333 117.648 22.86C117.048 23.0867 116.395 23.2 115.688 23.2ZM112.168 17.16H119.288C119.235 16.48 119.042 15.88 118.708 15.36C118.375 14.84 117.948 14.4333 117.428 14.14C116.908 13.8467 116.335 13.7 115.708 13.7C115.095 13.7 114.528 13.8467 114.008 14.14C113.488 14.4333 113.062 14.84 112.728 15.36C112.408 15.88 112.222 16.48 112.168 17.16ZM122.065 19.98C122.065 19.3133 122.252 18.74 122.625 18.26C123.012 17.7667 123.538 17.3867 124.205 17.12C124.872 16.8533 125.645 16.72 126.525 16.72C126.992 16.72 127.485 16.76 128.005 16.84C128.525 16.9067 128.985 17.0133 129.385 17.16V16.4C129.385 15.6 129.145 14.9733 128.665 14.52C128.185 14.0533 127.505 13.82 126.625 13.82C126.052 13.82 125.498 13.9267 124.965 14.14C124.445 14.34 123.892 14.6333 123.305 15.02L122.665 13.78C123.345 13.3133 124.025 12.9667 124.705 12.74C125.385 12.5 126.092 12.38 126.825 12.38C128.158 12.38 129.212 12.7533 129.985 13.5C130.758 14.2333 131.145 15.26 131.145 16.58V21C131.145 21.2133 131.185 21.3733 131.265 21.48C131.358 21.5733 131.505 21.6267 131.705 21.64V23C131.532 23.0267 131.378 23.0467 131.245 23.06C131.125 23.0733 131.025 23.08 130.945 23.08C130.532 23.08 130.218 22.9667 130.005 22.74C129.805 22.5133 129.692 22.2733 129.665 22.02L129.625 21.36C129.172 21.9467 128.578 22.4 127.845 22.72C127.112 23.04 126.385 23.2 125.665 23.2C124.972 23.2 124.352 23.06 123.805 22.78C123.258 22.4867 122.832 22.1 122.525 21.62C122.218 21.1267 122.065 20.58 122.065 19.98ZM128.865 20.72C129.025 20.5333 129.152 20.3467 129.245 20.16C129.338 19.96 129.385 19.7933 129.385 19.66V18.36C128.972 18.2 128.538 18.08 128.085 18C127.632 17.9067 127.185 17.86 126.745 17.86C125.852 17.86 125.125 18.04 124.565 18.4C124.018 18.7467 123.745 19.2267 123.745 19.84C123.745 20.1733 123.832 20.5 124.005 20.82C124.192 21.1267 124.458 21.38 124.805 21.58C125.165 21.78 125.605 21.88 126.125 21.88C126.672 21.88 127.192 21.7733 127.685 21.56C128.178 21.3333 128.572 21.0533 128.865 20.72ZM133.999 8.4H135.759V20.3C135.759 20.8733 135.839 21.2267 135.999 21.36C136.159 21.4933 136.352 21.56 136.579 21.56C136.859 21.56 137.126 21.5333 137.379 21.48C137.632 21.4133 137.846 21.3467 138.019 21.28L138.299 22.72C138.006 22.84 137.659 22.94 137.259 23.02C136.859 23.1 136.506 23.14 136.199 23.14C135.519 23.14 134.979 22.9467 134.579 22.56C134.192 22.1733 133.999 21.6333 133.999 20.94V8.4ZM145.082 22.48C144.935 22.5467 144.735 22.6333 144.482 22.74C144.228 22.8467 143.935 22.94 143.602 23.02C143.268 23.1 142.915 23.14 142.542 23.14C142.115 23.14 141.722 23.0667 141.362 22.92C141.002 22.76 140.715 22.52 140.502 22.2C140.288 21.8667 140.182 21.4533 140.182 20.96V13.94H138.762V12.56H140.182V9.08H141.942V12.56H144.282V13.94H141.942V20.42C141.968 20.7933 142.095 21.0733 142.322 21.26C142.548 21.4333 142.815 21.52 143.122 21.52C143.468 21.52 143.788 21.46 144.082 21.34C144.375 21.22 144.568 21.1333 144.662 21.08L145.082 22.48ZM155.773 23H154.013V17.16C154.013 16.0933 153.82 15.2933 153.433 14.76C153.06 14.2267 152.52 13.96 151.813 13.96C151.36 13.96 150.9 14.08 150.433 14.32C149.98 14.56 149.58 14.8867 149.233 15.3C148.886 15.7 148.633 16.1667 148.473 16.7V23H146.713V8.4H148.473V14.8C148.886 14.0533 149.446 13.4667 150.153 13.04C150.873 12.6 151.646 12.38 152.473 12.38C153.1 12.38 153.62 12.4933 154.033 12.72C154.46 12.9333 154.8 13.24 155.053 13.64C155.306 14.04 155.486 14.5067 155.593 15.04C155.713 15.56 155.773 16.1333 155.773 16.76V23ZM158.755 25.84C158.929 25.8533 159.102 25.8667 159.275 25.88C159.449 25.9067 159.582 25.92 159.675 25.92C159.889 25.92 160.075 25.8467 160.235 25.7C160.395 25.5533 160.569 25.2667 160.755 24.84C160.955 24.4267 161.209 23.8133 161.515 23L157.095 12.56H158.955L162.475 21.22L165.655 12.56H167.395L162.315 25.74C162.195 26.0467 162.015 26.3333 161.775 26.6C161.549 26.88 161.255 27.1 160.895 27.26C160.535 27.42 160.102 27.5 159.595 27.5C159.475 27.5 159.349 27.4933 159.215 27.48C159.095 27.4667 158.942 27.44 158.755 27.4V25.84Z" fill="white"/>
<path d="M57 21.5V25.8333C57 26.408 57.2283 26.9591 57.6346 27.3654C58.0409 27.7717 58.592 28 59.1667 28H63.5" stroke="white" stroke-linecap="round" stroke-linejoin="round"/>
<path d="M76.5 28H80.8333C81.408 28 81.9591 27.7717 82.3654 27.3654C82.7717 26.9591 83 26.408 83 25.8333V21.5" stroke="white" stroke-linecap="round" stroke-linejoin="round"/>
<path d="M83 8.5V4.16667C83 3.59203 82.7717 3.04093 82.3654 2.6346C81.9591 2.22827 81.408 2 80.8333 2H76.5" stroke="white" stroke-linecap="round" stroke-linejoin="round"/>
<path d="M57 8.5V4.16667C57 3.59203 57.2283 3.04093 57.6346 2.6346C58.0409 2.22827 58.592 2 59.1667 2H63.5" stroke="white" stroke-linecap="round" stroke-linejoin="round"/>
<path d="M77.2219 15L69.9997 22.2222L62.7775 15C62.0553 14.2778 61.6941 12.8333 62.7775 11.3889C63.8608 9.94443 66.0275 9.94443 67.1108 10.6667C68.1941 11.3889 68.5553 12.1111 69.9997 12.1111C71.4441 12.1111 71.8053 11.3889 72.8886 10.6667C73.9719 9.94443 76.1386 9.94443 77.2219 11.3889C78.3053 12.8333 77.9441 14.2778 77.2219 15Z" stroke="white" stroke-linecap="round" stroke-linejoin="round"/>
<path d="M11.1572 19.4224C11.1572 19.0562 11.1003 18.7306 10.9863 18.4458C10.8805 18.161 10.6893 17.9006 10.4126 17.6646C10.1359 17.4285 9.74528 17.2007 9.24072 16.981C8.7443 16.7531 8.10954 16.5212 7.33643 16.2852C6.49007 16.0247 5.70882 15.7358 4.99268 15.4185C4.28467 15.0929 3.66618 14.7186 3.13721 14.2954C2.60824 13.8641 2.19727 13.3717 1.9043 12.8184C1.61133 12.2568 1.46484 11.6099 1.46484 10.8774C1.46484 10.1532 1.6154 9.49398 1.9165 8.8999C2.22575 8.30583 2.66113 7.79313 3.22266 7.36182C3.79232 6.92236 4.4637 6.58464 5.23682 6.34863C6.00993 6.10449 6.86442 5.98242 7.80029 5.98242C9.11865 5.98242 10.2539 6.22656 11.2061 6.71484C12.1663 7.20312 12.9028 7.85824 13.4155 8.68018C13.9364 9.50212 14.1968 10.4095 14.1968 11.4023H11.1572C11.1572 10.8164 11.0311 10.2996 10.7788 9.85205C10.5347 9.39632 10.1603 9.03825 9.65576 8.77783C9.15934 8.51742 8.52865 8.38721 7.76367 8.38721C7.03939 8.38721 6.43717 8.49707 5.95703 8.7168C5.47689 8.93652 5.11882 9.23356 4.88281 9.60791C4.64681 9.98226 4.52881 10.4054 4.52881 10.8774C4.52881 11.2111 4.60612 11.5163 4.76074 11.793C4.91536 12.0615 5.15137 12.3138 5.46875 12.5498C5.78613 12.7777 6.1849 12.9933 6.66504 13.1968C7.14518 13.4002 7.71077 13.5955 8.36182 13.7827C9.34652 14.0757 10.2051 14.4012 10.9375 14.7593C11.6699 15.1092 12.2803 15.508 12.7686 15.9556C13.2568 16.4032 13.623 16.9118 13.8672 17.4814C14.1113 18.043 14.2334 18.6818 14.2334 19.3979C14.2334 20.1466 14.0828 20.8221 13.7817 21.4243C13.4806 22.0184 13.0493 22.527 12.4878 22.9502C11.9344 23.3652 11.2671 23.6867 10.4858 23.9146C9.71273 24.1343 8.8501 24.2441 7.89795 24.2441C7.04346 24.2441 6.20117 24.1302 5.37109 23.9023C4.54915 23.6745 3.80046 23.3286 3.125 22.8647C2.44954 22.3927 1.91243 21.8068 1.51367 21.1069C1.11491 20.3989 0.915527 19.5729 0.915527 18.6289H3.97949C3.97949 19.2067 4.07715 19.6991 4.27246 20.106C4.47591 20.5129 4.75667 20.8465 5.11475 21.1069C5.47282 21.3592 5.88786 21.5464 6.35986 21.6685C6.84001 21.7905 7.3527 21.8516 7.89795 21.8516C8.6141 21.8516 9.21224 21.7498 9.69238 21.5464C10.1807 21.3429 10.5469 21.0581 10.791 20.6919C11.0352 20.3257 11.1572 19.9025 11.1572 19.4224ZM22.7051 10.792V12.9404H15.2588V10.792H22.7051ZM17.4072 7.55713H20.3491V20.3501C20.3491 20.757 20.4061 21.0703 20.52 21.29C20.6421 21.5016 20.8089 21.644 21.0205 21.7173C21.2321 21.7905 21.4803 21.8271 21.7651 21.8271C21.9686 21.8271 22.1639 21.8149 22.3511 21.7905C22.5382 21.7661 22.6888 21.7417 22.8027 21.7173L22.8149 23.9634C22.5708 24.0366 22.286 24.1017 21.9604 24.1587C21.6431 24.2157 21.2769 24.2441 20.8618 24.2441C20.1864 24.2441 19.5882 24.1261 19.0674 23.8901C18.5465 23.646 18.1396 23.2513 17.8467 22.7061C17.5537 22.1608 17.4072 21.4365 17.4072 20.5332V7.55713ZM32.4219 21.3511V15.0522C32.4219 14.5802 32.3364 14.1733 32.1655 13.8315C31.9946 13.4897 31.7342 13.2253 31.3843 13.0381C31.0425 12.8509 30.6112 12.7573 30.0903 12.7573C29.6102 12.7573 29.1951 12.8387 28.8452 13.0015C28.4953 13.1642 28.2227 13.384 28.0273 13.6606C27.832 13.9373 27.7344 14.2507 27.7344 14.6006H24.8047C24.8047 14.0798 24.9308 13.5752 25.1831 13.0869C25.4354 12.5986 25.8016 12.1632 26.2817 11.7808C26.7619 11.3983 27.3356 11.0972 28.0029 10.8774C28.6702 10.6577 29.4189 10.5479 30.249 10.5479C31.2419 10.5479 32.1208 10.7147 32.8857 11.0483C33.6589 11.382 34.2651 11.8866 34.7046 12.562C35.1522 13.2293 35.376 14.0675 35.376 15.0767V20.9482C35.376 21.5505 35.4167 22.0916 35.498 22.5718C35.5876 23.0438 35.7137 23.4548 35.8765 23.8047V24H32.8613C32.723 23.6826 32.6131 23.2798 32.5317 22.7915C32.4585 22.2951 32.4219 21.8149 32.4219 21.3511ZM32.8491 15.9678L32.8735 17.7866H30.7617C30.2165 17.7866 29.7363 17.8395 29.3213 17.9453C28.9062 18.043 28.5604 18.1895 28.2837 18.3848C28.007 18.5801 27.7995 18.8161 27.6611 19.0928C27.5228 19.3695 27.4536 19.6828 27.4536 20.0327C27.4536 20.3826 27.535 20.7041 27.6978 20.9971C27.8605 21.2819 28.0965 21.5057 28.4058 21.6685C28.7231 21.8312 29.1056 21.9126 29.5532 21.9126C30.1554 21.9126 30.6803 21.7905 31.1279 21.5464C31.5837 21.2941 31.9417 20.9889 32.2021 20.6309C32.4626 20.2646 32.6009 19.9188 32.6172 19.5933L33.5693 20.8994C33.4717 21.2331 33.3049 21.5911 33.0688 21.9736C32.8328 22.3561 32.5236 22.7223 32.1411 23.0723C31.7668 23.4141 31.3151 23.6948 30.7861 23.9146C30.2653 24.1343 29.6631 24.2441 28.9795 24.2441C28.1169 24.2441 27.3478 24.0732 26.6724 23.7314C25.9969 23.3815 25.4679 22.9136 25.0854 22.3276C24.703 21.7336 24.5117 21.0622 24.5117 20.3135C24.5117 19.6136 24.6419 18.9951 24.9023 18.458C25.1709 17.9128 25.5615 17.457 26.0742 17.0908C26.5951 16.7246 27.2298 16.4479 27.9785 16.2607C28.7272 16.0654 29.5817 15.9678 30.542 15.9678H32.8491ZM42.0898 22.5596L45.6787 10.792H48.8281L43.5303 26.0142C43.4082 26.3397 43.2495 26.6937 43.0542 27.0762C42.8589 27.4587 42.6025 27.8208 42.2852 28.1626C41.9759 28.5125 41.5894 28.7933 41.1255 29.0049C40.6616 29.2246 40.1001 29.3345 39.4409 29.3345C39.1805 29.3345 38.9282 29.3101 38.6841 29.2612C38.4481 29.2205 38.2243 29.1758 38.0127 29.127L38.0005 26.8809C38.0819 26.889 38.1795 26.8971 38.2935 26.9053C38.4155 26.9134 38.5132 26.9175 38.5864 26.9175C39.0747 26.9175 39.4816 26.8564 39.8071 26.7344C40.1326 26.6204 40.3971 26.4333 40.6006 26.1729C40.8122 25.9124 40.9912 25.5625 41.1377 25.123L42.0898 22.5596ZM40.0635 10.792L43.2007 20.6797L43.7256 23.7803L41.687 24.3052L36.8896 10.792H40.0635Z" fill="white" fill-opacity="0.3"/>
<path d="M18.04 11.78C17.88 11.5933 17.6667 11.4133 17.4 11.24C17.1333 11.0667 16.8333 10.9133 16.5 10.78C16.1667 10.6333 15.8 10.52 15.4 10.44C15.0133 10.3467 14.6067 10.3 14.18 10.3C13.0867 10.3 12.28 10.5067 11.76 10.92C11.24 11.3333 10.98 11.9 10.98 12.62C10.98 13.1267 11.1133 13.5267 11.38 13.82C11.6467 14.1133 12.0533 14.3533 12.6 14.54C13.16 14.7267 13.8667 14.92 14.72 15.12C15.7067 15.3333 16.56 15.5933 17.28 15.9C18 16.2067 18.5533 16.62 18.94 17.14C19.3267 17.6467 19.52 18.3267 19.52 19.18C19.52 19.86 19.3867 20.4533 19.12 20.96C18.8667 21.4533 18.5067 21.8667 18.04 22.2C17.5733 22.52 17.0267 22.76 16.4 22.92C15.7733 23.0667 15.0933 23.14 14.36 23.14C13.64 23.14 12.9333 23.0667 12.24 22.92C11.56 22.76 10.9133 22.5333 10.3 22.24C9.68667 21.9467 9.11333 21.58 8.58 21.14L9.44 19.62C9.65333 19.8467 9.92667 20.0733 10.26 20.3C10.6067 20.5133 10.9933 20.7133 11.42 20.9C11.86 21.0867 12.3333 21.24 12.84 21.36C13.3467 21.4667 13.8667 21.52 14.4 21.52C15.4133 21.52 16.2 21.34 16.76 20.98C17.32 20.6067 17.6 20.0667 17.6 19.36C17.6 18.8267 17.44 18.4 17.12 18.08C16.8133 17.76 16.3533 17.4933 15.74 17.28C15.1267 17.0667 14.38 16.8533 13.5 16.64C12.54 16.4 11.7333 16.14 11.08 15.86C10.4267 15.5667 9.93333 15.1867 9.6 14.72C9.28 14.2533 9.12 13.6467 9.12 12.9C9.12 11.9933 9.34 11.2267 9.78 10.6C10.22 9.97333 10.8267 9.5 11.6 9.18C12.3733 8.86 13.2467 8.7 14.22 8.7C14.86 8.7 15.4533 8.76667 16 8.9C16.56 9.03333 17.08 9.22 17.56 9.46C18.04 9.7 18.48 9.98667 18.88 10.32L18.04 11.78ZM26.8122 22.48C26.6655 22.5467 26.4655 22.6333 26.2122 22.74C25.9589 22.8467 25.6655 22.94 25.3322 23.02C24.9989 23.1 24.6455 23.14 24.2722 23.14C23.8455 23.14 23.4522 23.0667 23.0922 22.92C22.7322 22.76 22.4455 22.52 22.2322 22.2C22.0189 21.8667 21.9122 21.4533 21.9122 20.96V13.94H20.4922V12.56H21.9122V9.08H23.6722V12.56H26.0122V13.94H23.6722V20.42C23.6989 20.7933 23.8255 21.0733 24.0522 21.26C24.2789 21.4333 24.5455 21.52 24.8522 21.52C25.1989 21.52 25.5189 21.46 25.8122 21.34C26.1055 21.22 26.2989 21.1333 26.3922 21.08L26.8122 22.48ZM27.6234 19.98C27.6234 19.3133 27.8101 18.74 28.1834 18.26C28.5701 17.7667 29.0968 17.3867 29.7634 17.12C30.4301 16.8533 31.2034 16.72 32.0834 16.72C32.5501 16.72 33.0434 16.76 33.5634 16.84C34.0834 16.9067 34.5434 17.0133 34.9434 17.16V16.4C34.9434 15.6 34.7034 14.9733 34.2234 14.52C33.7434 14.0533 33.0634 13.82 32.1834 13.82C31.6101 13.82 31.0568 13.9267 30.5234 14.14C30.0034 14.34 29.4501 14.6333 28.8634 15.02L28.2234 13.78C28.9034 13.3133 29.5834 12.9667 30.2634 12.74C30.9434 12.5 31.6501 12.38 32.3834 12.38C33.7168 12.38 34.7701 12.7533 35.5434 13.5C36.3168 14.2333 36.7034 15.26 36.7034 16.58V21C36.7034 21.2133 36.7434 21.3733 36.8234 21.48C36.9168 21.5733 37.0634 21.6267 37.2634 21.64V23C37.0901 23.0267 36.9368 23.0467 36.8034 23.06C36.6834 23.0733 36.5834 23.08 36.5034 23.08C36.0901 23.08 35.7768 22.9667 35.5634 22.74C35.3634 22.5133 35.2501 22.2733 35.2234 22.02L35.1834 21.36C34.7301 21.9467 34.1368 22.4 33.4034 22.72C32.6701 23.04 31.9434 23.2 31.2234 23.2C30.5301 23.2 29.9101 23.06 29.3634 22.78C28.8168 22.4867 28.3901 22.1 28.0834 21.62C27.7768 21.1267 27.6234 20.58 27.6234 19.98ZM34.4234 20.72C34.5834 20.5333 34.7101 20.3467 34.8034 20.16C34.8968 19.96 34.9434 19.7933 34.9434 19.66V18.36C34.5301 18.2 34.0968 18.08 33.6434 18C33.1901 17.9067 32.7434 17.86 32.3034 17.86C31.4101 17.86 30.6834 18.04 30.1234 18.4C29.5768 18.7467 29.3034 19.2267 29.3034 19.84C29.3034 20.1733 29.3901 20.5 29.5634 20.82C29.7501 21.1267 30.0168 21.38 30.3634 21.58C30.7234 21.78 31.1634 21.88 31.6834 21.88C32.2301 21.88 32.7501 21.7733 33.2434 21.56C33.7368 21.3333 34.1301 21.0533 34.4234 20.72ZM39.6656 25.84C39.839 25.8533 40.0123 25.8667 40.1856 25.88C40.359 25.9067 40.4923 25.92 40.5856 25.92C40.799 25.92 40.9856 25.8467 41.1456 25.7C41.3056 25.5533 41.479 25.2667 41.6656 24.84C41.8656 24.4267 42.119 23.8133 42.4256 23L38.0056 12.56H39.8656L43.3856 21.22L46.5656 12.56H48.3056L43.2256 25.74C43.1056 26.0467 42.9256 26.3333 42.6856 26.6C42.459 26.88 42.1656 27.1 41.8056 27.26C41.4456 27.42 41.0123 27.5 40.5056 27.5C40.3856 27.5 40.259 27.4933 40.1256 27.48C40.0056 27.4667 39.8523 27.44 39.6656 27.4V25.84Z" fill="white"/>
</svg>
